<?xml version="1.0" encoding="UTF-8"?>
<svg width="47px" height="50px" viewBox="0 0 47 50" version="1.1" xmlns="http://www.w3.org/2000/svg" xmlns:xlink="http://www.w3.org/1999/xlink">
    <!-- Generator: Sketch 53.2 (72643) - https://sketchapp.com -->
    <title>document_icon</title>
    <desc>Created with Sketch.</desc>
    <g id="Page-1" stroke="none" stroke-width="1" fill="none" fill-rule="evenodd">
        <g id="27.trash" transform="translate(-256.000000, -212.000000)">
            <g id="document_icon" transform="translate(256.000000, 212.000000)">
                <g id="Group">
                    <path d="M46.7319084,13.530957 L34.0249325,0.294726562 C33.8440292,0.106445313 33.5944468,0 33.3337589,0 L14.3949202,0 C12.2754186,0 10.5510403,1.72792969 10.5510403,3.85175781 L10.5510403,17.3077148 L2.87584722,17.3077148 C1.29009331,17.3077148 0,18.6005859 0,20.1898438 L0,34.6179688 C1.73047352e-16,36.2071289 1.29009331,37.5 2.87584722,37.5 L10.5510403,37.5 L10.5510403,46.1549805 C10.5510403,48.2750977 12.2754186,50 14.3949202,50 L43.1561201,50 C45.2756217,50 47,48.2760742 47,46.1571289 L47,14.1977539 C47,13.9491211 46.9038494,13.7101562 46.7319084,13.530957 Z M33.5714286,2.66666667 L44.3142857,13.3333333 L33.5714286,13.3333333 L33.5714286,2.66666667 Z M2.96179813,36 C2.43925872,36 2.01428571,35.5613904 2.01428571,35.0222143 L2.01428571,20.3112186 C2.01428571,19.7720425 2.43935513,19.3333333 2.96179813,19.3333333 L28.5953447,19.3333333 C29.1178841,19.3333333 29.5428571,19.7720425 29.5428571,20.3112186 L29.5428571,35.0222143 C29.5428571,35.5613904 29.1177877,36 28.5953447,36 L2.96179813,36 Z M44.9857143,46.0865777 C44.9857143,47.1416414 44.1142946,48 43.0431766,48 L14.028252,48 C12.957134,48 12.0857143,47.1407654 12.0857143,46.0845337 L12.0857143,37.4583171 L28.5375324,37.4583171 C30.1372809,37.4583171 31.4387595,36.1697573 31.4387595,34.5858964 L31.4387595,20.2058838 C31.4387595,18.6219256 30.1372809,17.3333658 28.5375324,17.3333658 L12.0857143,17.3333658 L12.0857143,3.9222794 C12.0857143,2.86225181 12.957134,2 14.028252,2 L31.4386612,2 L31.4386612,14.4583171 C31.4386612,14.9876009 31.8719633,15.4166342 32.4062938,15.4166342 L44.9857143,15.4166342 L44.9857143,46.0865777 Z" id="Shape" fill="#046BFC" fill-rule="nonzero"></path>
                    <text id="DOC" font-family="Lato-Black, Lato" font-size="9" font-weight="700" letter-spacing="0.4090909" fill="#FC990F">
                        <tspan x="4" y="31">DOC</tspan>
                    </text>
                </g>
                <path d="M15.4032258,38.5 L40,38.5" id="Line" stroke="#046BFC" stroke-linecap="square"></path>
                <path d="M15.4032258,42.5 L40,42.5" id="Line" stroke="#046BFC" stroke-linecap="square"></path>
                <path d="M31.0533046,34.5 L40,34.5" id="Line" stroke="#046BFC" stroke-linecap="square"></path>
                <path d="M31.0533046,29.5 L40,29.5" id="Line" stroke="#046BFC" stroke-linecap="square"></path>
                <path d="M31.0533046,25.5 L40,25.5" id="Line" stroke="#046BFC" stroke-linecap="square"></path>
                <path d="M31.0533046,21.5 L40,21.5" id="Line" stroke="#046BFC" stroke-linecap="square"></path>
                <path d="M31.0533046,17.5 L40,17.5" id="Line" stroke="#046BFC" stroke-linecap="square"></path>
            </g>
        </g>
    </g>
</svg>